<svg width="3256" height="3248" viewBox="0 0 3256 3248" fill="none" xmlns="http://www.w3.org/2000/svg">
<g filter="url(#filter0_d_285_325)">
<path d="M1387 638.5C1291.4 642.1 1316 734.5 1298 752.5V620.5C1378.67 620.667 1482.6 634.9 1387 638.5Z" fill="#193CB8"/>
</g>
<path d="M708.998 320.5C647.998 320.5 645.998 253 647.998 240L541.95 278.5C522.616 288.167 488.759 314.5 554.003 314.5C619.5 314.5 647.998 333.5 648.5 396L708.998 320.5Z" fill="#193CB8"/>
<rect y="320" width="320" height="980" rx="60" fill="#193CB8"/>
<rect x="328" width="320" height="320" rx="60" fill="#193CB8"/>
<rect x="648" y="320" width="1300" height="320" rx="60" fill="#193CB8"/>
<rect x="648" y="320" width="660" height="980" rx="60" fill="#193CB8"/>
<g filter="url(#filter1_d_285_325)">
<path d="M2609.5 1387C2605.9 1291.4 2513.5 1316 2495.5 1298H2627.5C2627.33 1378.67 2613.1 1482.6 2609.5 1387Z" fill="#FAFAFA"/>
</g>
<path d="M2927.5 708.998C2927.5 647.998 2995 645.998 3008 647.998L2969.5 541.95C2959.83 522.616 2933.5 488.759 2933.5 554.003C2933.5 619.5 2914.5 647.998 2852 648.5L2927.5 708.998Z" fill="#FAFAFA"/>
<rect x="2928" width="320" height="980" rx="60" transform="rotate(90 2928 0)" fill="#FAFAFA"/>
<rect x="3248" y="328" width="320" height="320" rx="60" transform="rotate(90 3248 328)" fill="#FAFAFA"/>
<rect x="2928" y="648" width="1300" height="320" rx="60" transform="rotate(90 2928 648)" fill="#FAFAFA"/>
<rect x="2928" y="648" width="660" height="980" rx="60" transform="rotate(90 2928 648)" fill="#FAFAFA"/>
<g filter="url(#filter2_d_285_325)">
<path d="M1869 2609.5C1964.6 2605.9 1940 2513.5 1958 2495.5V2627.5C1877.33 2627.33 1773.4 2613.1 1869 2609.5Z" fill="#DBEAFE"/>
</g>
<path d="M2547 2927.5C2608 2927.5 2610 2995 2608 3008L2714.05 2969.5C2733.38 2959.83 2767.24 2933.5 2702 2933.5C2636.5 2933.5 2608 2914.5 2607.5 2852L2547 2927.5Z" fill="#DBEAFE"/>
<rect x="3256" y="2928" width="320" height="980" rx="60" transform="rotate(-180 3256 2928)" fill="#DBEAFE"/>
<rect x="2928" y="3248" width="320" height="320" rx="60" transform="rotate(-180 2928 3248)" fill="#DBEAFE"/>
<rect x="2608" y="2928" width="1300" height="320" rx="60" transform="rotate(-180 2608 2928)" fill="#DBEAFE"/>
<rect x="2608" y="2928" width="660" height="980" rx="60" transform="rotate(-180 2608 2928)" fill="#DBEAFE"/>
<g filter="url(#filter3_d_285_325)">
<path d="M646.5 1859C650.1 1954.6 742.5 1930 760.5 1948H628.5C628.667 1867.33 642.9 1763.4 646.5 1859Z" fill="#0091D1"/>
</g>
<path d="M328.5 2537C328.5 2598 261 2600 248 2598L286.5 2704.05C296.167 2723.38 322.5 2757.24 322.5 2692C322.5 2626.5 341.5 2598 404 2597.5L328.5 2537Z" fill="#0091D1"/>
<rect x="328" y="3246" width="320" height="980" rx="60" transform="rotate(-90 328 3246)" fill="#0091D1"/>
<rect x="8" y="2918" width="320" height="320" rx="60" transform="rotate(-90 8 2918)" fill="#0091D1"/>
<rect x="328" y="2598" width="1300" height="320" rx="60" transform="rotate(-90 328 2598)" fill="#0091D1"/>
<rect x="328" y="2598" width="660" height="980" rx="60" transform="rotate(-90 328 2598)" fill="#0091D1"/>
<defs>
<filter id="filter0_d_285_325" x="1294" y="620.5" width="135.274" height="140" filterUnits="userSpaceOnUse" color-interpolation-filters="sRGB">
<feFlood flood-opacity="0" result="BackgroundImageFix"/>
<feColorMatrix in="SourceAlpha" type="matrix" values="0 0 0 0 0 0 0 0 0 0 0 0 0 0 0 0 0 0 127 0" result="hardAlpha"/>
<feOffset dy="4"/>
<feGaussianBlur stdDeviation="2"/>
<feComposite in2="hardAlpha" operator="out"/>
<feColorMatrix type="matrix" values="0 0 0 0 0 0 0 0 0 0 0 0 0 0 0 0 0 0 0.25 0"/>
<feBlend mode="normal" in2="BackgroundImageFix" result="effect1_dropShadow_285_325"/>
<feBlend mode="normal" in="SourceGraphic" in2="effect1_dropShadow_285_325" result="shape"/>
</filter>
<filter id="filter1_d_285_325" x="2491.5" y="1298" width="140" height="135.275" filterUnits="userSpaceOnUse" color-interpolation-filters="sRGB">
<feFlood flood-opacity="0" result="BackgroundImageFix"/>
<feColorMatrix in="SourceAlpha" type="matrix" values="0 0 0 0 0 0 0 0 0 0 0 0 0 0 0 0 0 0 127 0" result="hardAlpha"/>
<feOffset dy="4"/>
<feGaussianBlur stdDeviation="2"/>
<feComposite in2="hardAlpha" operator="out"/>
<feColorMatrix type="matrix" values="0 0 0 0 0 0 0 0 0 0 0 0 0 0 0 0 0 0 0.25 0"/>
<feBlend mode="normal" in2="BackgroundImageFix" result="effect1_dropShadow_285_325"/>
<feBlend mode="normal" in="SourceGraphic" in2="effect1_dropShadow_285_325" result="shape"/>
</filter>
<filter id="filter2_d_285_325" x="1826.72" y="2495.5" width="135.275" height="140" filterUnits="userSpaceOnUse" color-interpolation-filters="sRGB">
<feFlood flood-opacity="0" result="BackgroundImageFix"/>
<feColorMatrix in="SourceAlpha" type="matrix" values="0 0 0 0 0 0 0 0 0 0 0 0 0 0 0 0 0 0 127 0" result="hardAlpha"/>
<feOffset dy="4"/>
<feGaussianBlur stdDeviation="2"/>
<feComposite in2="hardAlpha" operator="out"/>
<feColorMatrix type="matrix" values="0 0 0 0 0 0 0 0 0 0 0 0 0 0 0 0 0 0 0.25 0"/>
<feBlend mode="normal" in2="BackgroundImageFix" result="effect1_dropShadow_285_325"/>
<feBlend mode="normal" in="SourceGraphic" in2="effect1_dropShadow_285_325" result="shape"/>
</filter>
<filter id="filter3_d_285_325" x="624.5" y="1820.73" width="140" height="135.275" filterUnits="userSpaceOnUse" color-interpolation-filters="sRGB">
<feFlood flood-opacity="0" result="BackgroundImageFix"/>
<feColorMatrix in="SourceAlpha" type="matrix" values="0 0 0 0 0 0 0 0 0 0 0 0 0 0 0 0 0 0 127 0" result="hardAlpha"/>
<feOffset dy="4"/>
<feGaussianBlur stdDeviation="2"/>
<feComposite in2="hardAlpha" operator="out"/>
<feColorMatrix type="matrix" values="0 0 0 0 0 0 0 0 0 0 0 0 0 0 0 0 0 0 0.25 0"/>
<feBlend mode="normal" in2="BackgroundImageFix" result="effect1_dropShadow_285_325"/>
<feBlend mode="normal" in="SourceGraphic" in2="effect1_dropShadow_285_325" result="shape"/>
</filter>
</defs>
</svg>
