<svg width="933" height="94" viewBox="0 0 933 94" fill="none" xmlns="http://www.w3.org/2000/svg">
<path d="M4.344 92V81.12H43.128C46.1147 81.12 48.6747 80.4373 50.808 79.072C52.9413 77.6213 54.6053 75.7867 55.8 73.568C56.9947 71.3493 57.592 69.0027 57.592 66.528C57.592 63.968 56.9947 61.6213 55.8 59.488C54.6907 57.2693 53.0693 55.52 50.936 54.24C48.888 52.8747 46.3707 52.192 43.384 52.192H26.488C21.4533 52.192 17.016 51.168 13.176 49.12C9.336 46.9867 6.30667 44.0853 4.088 40.416C1.95467 36.6613 0.888 32.4373 0.888 27.744C0.888 22.9653 1.912 18.656 3.96 14.816C6.09333 10.976 9.03733 7.94667 12.792 5.728C16.632 3.50933 21.0267 2.39999 25.976 2.39999H63.992V13.28H27.128C24.312 13.28 21.8373 13.9627 19.704 15.328C17.5707 16.608 15.9493 18.3147 14.84 20.448C13.7307 22.496 13.176 24.7147 13.176 27.104C13.176 29.408 13.688 31.6267 14.712 33.76C15.8213 35.808 17.4 37.472 19.448 38.752C21.5813 40.032 24.0133 40.672 26.744 40.672H44.024C49.4 40.672 54.008 41.7387 57.848 43.872C61.688 46.0053 64.632 48.9067 66.68 52.576C68.728 56.2453 69.752 60.4267 69.752 65.12C69.752 70.3253 68.6853 74.976 66.552 79.072C64.504 83.0827 61.56 86.24 57.72 88.544C53.88 90.848 49.4853 92 44.536 92H4.344ZM145.01 93.536C140.231 93.536 136.007 92.4693 132.338 90.336C128.754 88.1173 125.938 85.1307 123.89 81.376C121.842 77.6213 120.818 73.3973 120.818 68.704V24.032C120.818 21.728 120.263 19.6373 119.154 17.76C118.045 15.8827 116.551 14.3893 114.674 13.28C112.797 12.1707 110.749 11.616 108.53 11.616C106.311 11.616 104.263 12.1707 102.386 13.28C100.594 14.3893 99.1433 15.8827 98.034 17.76C97.01 19.6373 96.498 21.728 96.498 24.032V92H84.21V25.696C84.21 21.0027 85.234 16.7787 87.282 13.024C89.33 9.26933 92.1887 6.32533 95.858 4.19199C99.5273 1.97333 103.751 0.863998 108.53 0.863998C113.394 0.863998 117.661 1.97333 121.33 4.19199C124.999 6.32533 127.858 9.26933 129.906 13.024C131.954 16.7787 132.978 21.0027 132.978 25.696V70.368C132.978 72.672 133.533 74.7627 134.642 76.64C135.751 78.5173 137.202 80.0107 138.994 81.12C140.871 82.2293 142.877 82.784 145.01 82.784C147.143 82.784 149.106 82.2293 150.898 81.12C152.69 80.0107 154.098 78.5173 155.122 76.64C156.231 74.7627 156.786 72.672 156.786 70.368V2.39999H169.074V68.704C169.074 73.3973 168.05 77.6213 166.002 81.376C163.954 85.1307 161.138 88.1173 157.554 90.336C153.97 92.4693 149.789 93.536 145.01 93.536ZM222.928 93.536C216.016 93.536 209.872 92.0853 204.496 89.184C199.12 86.2827 194.896 82.1013 191.824 76.64C188.837 71.1787 187.344 64.736 187.344 57.312V2.39999H199.632V58.592C199.632 62.944 200.571 66.9547 202.448 70.624C204.325 74.2933 207.013 77.2373 210.512 79.456C214.011 81.5893 218.149 82.656 222.928 82.656C227.707 82.656 231.845 81.5893 235.344 79.456C238.843 77.2373 241.488 74.2933 243.28 70.624C245.157 66.9547 246.096 62.944 246.096 58.592V2.39999H258.384V57.312C258.384 64.736 256.848 71.1787 253.776 76.64C250.789 82.1013 246.608 86.2827 241.232 89.184C235.941 92.0853 229.84 93.536 222.928 93.536ZM277.478 92V2.39999H289.766V40.928H336.998V2.39999H349.286V92H336.998V51.808H289.766V92H277.478ZM402.603 92V2.39999H451.243C455.766 2.39999 459.734 3.42399 463.147 5.47199C466.56 7.43466 469.248 10.1227 471.211 13.536C473.174 16.9493 474.155 20.832 474.155 25.184C474.155 28.1707 473.515 31.072 472.235 33.888C471.04 36.6187 469.334 39.008 467.115 41.056C464.896 43.104 462.251 44.64 459.179 45.664C462.678 46.5173 465.707 48.0533 468.267 50.272C470.827 52.4907 472.832 55.136 474.283 58.208C475.819 61.28 476.587 64.608 476.587 68.192C476.587 72.6293 475.563 76.64 473.515 80.224C471.467 83.808 468.608 86.6667 464.939 88.8C461.355 90.9333 457.046 92 452.011 92H402.603ZM414.891 81.12H449.195C452.352 81.12 455.04 80.4373 457.259 79.072C459.478 77.6213 461.184 75.7867 462.379 73.568C463.659 71.264 464.299 68.832 464.299 66.272C464.299 63.6267 463.659 61.2373 462.379 59.104C461.099 56.8853 459.307 55.0933 457.003 53.728C454.699 52.2773 451.968 51.552 448.811 51.552H414.891V81.12ZM414.891 41.184H447.019C450.006 41.184 452.608 40.544 454.827 39.264C457.131 37.8987 458.88 36.1493 460.075 34.016C461.355 31.7973 461.995 29.4933 461.995 27.104C461.995 24.6293 461.398 22.368 460.203 20.32C459.008 18.1867 457.344 16.48 455.211 15.2C453.078 13.92 450.603 13.28 447.787 13.28H414.891V41.184ZM551.76 93.536C547.152 93.536 543.013 92.4693 539.344 90.336C535.675 88.2027 532.773 85.3013 530.64 81.632C528.592 77.8773 527.568 73.5253 527.568 68.576V24.032C527.568 21.728 527.013 19.6373 525.904 17.76C524.795 15.8827 523.301 14.3893 521.424 13.28C519.547 12.1707 517.499 11.616 515.28 11.616C513.061 11.616 511.013 12.1707 509.136 13.28C507.344 14.3893 505.893 15.8827 504.784 17.76C503.76 19.6373 503.248 21.728 503.248 24.032V92H490.96V25.696C490.96 21.0027 491.984 16.7787 494.032 13.024C496.08 9.26933 498.939 6.32533 502.608 4.19199C506.277 1.97333 510.501 0.863998 515.28 0.863998C520.144 0.863998 524.411 1.97333 528.08 4.19199C531.749 6.32533 534.608 9.26933 536.656 13.024C538.704 16.7787 539.728 21.0027 539.728 25.696V70.24C539.728 72.6293 540.283 74.7627 541.392 76.64C542.501 78.432 543.952 79.8827 545.744 80.992C547.621 82.1013 549.627 82.656 551.76 82.656C553.893 82.656 555.856 82.1013 557.648 80.992C559.44 79.8827 560.848 78.432 561.872 76.64C562.981 74.7627 563.536 72.6293 563.536 70.24V25.696C563.536 21.0027 564.56 16.7787 566.608 13.024C568.741 9.26933 571.643 6.32533 575.312 4.19199C578.981 1.97333 583.248 0.863998 588.112 0.863998C592.891 0.863998 597.115 1.97333 600.784 4.19199C604.453 6.32533 607.312 9.26933 609.36 13.024C611.408 16.7787 612.432 21.0027 612.432 25.696V92H600.144V24.032C600.144 21.728 599.589 19.6373 598.48 17.76C597.456 15.8827 596.005 14.3893 594.128 13.28C592.336 12.1707 590.331 11.616 588.112 11.616C585.808 11.616 583.717 12.1707 581.84 13.28C580.048 14.3893 578.597 15.8827 577.488 17.76C576.379 19.6373 575.824 21.728 575.824 24.032V68.576C575.824 73.5253 574.757 77.8773 572.624 81.632C570.576 85.3013 567.717 88.2027 564.048 90.336C560.464 92.4693 556.368 93.536 551.76 93.536ZM628.031 92V81.12H645.311V13.28H628.031V2.39999H674.751V13.28H657.599V81.12H674.751V92H628.031ZM747.762 92C742.898 92 738.674 90.976 735.09 88.928C731.591 86.7947 728.861 83.936 726.898 80.352C725.021 76.6827 724.082 72.5867 724.082 68.064V2.39999H736.37V69.6C736.37 72.928 737.394 75.7013 739.442 77.92C741.575 80.0533 744.349 81.12 747.762 81.12H771.826V92H747.762ZM761.131 92L791.595 10.976C792.96 7.47733 794.838 4.91733 797.227 3.296C799.616 1.67466 802.39 0.863998 805.547 0.863998C808.704 0.863998 811.478 1.67466 813.867 3.296C816.342 4.832 818.219 7.34933 819.499 10.848L850.091 92H836.651L828.843 70.368H781.995L774.059 92H761.131ZM785.835 59.488H825.131L809.131 15.072C808.704 13.9627 808.235 13.1093 807.723 12.512C807.211 11.9147 806.486 11.616 805.547 11.616C804.694 11.616 804.011 11.9147 803.499 12.512C802.987 13.1093 802.56 13.9627 802.219 15.072L785.835 59.488ZM858.228 92V2.39999H906.868C911.391 2.39999 915.359 3.42399 918.772 5.47199C922.185 7.43466 924.873 10.1227 926.836 13.536C928.799 16.9493 929.78 20.832 929.78 25.184C929.78 28.1707 929.14 31.072 927.86 33.888C926.665 36.6187 924.959 39.008 922.74 41.056C920.521 43.104 917.876 44.64 914.804 45.664C918.303 46.5173 921.332 48.0533 923.892 50.272C926.452 52.4907 928.457 55.136 929.908 58.208C931.444 61.28 932.212 64.608 932.212 68.192C932.212 72.6293 931.188 76.64 929.14 80.224C927.092 83.808 924.233 86.6667 920.564 88.8C916.98 90.9333 912.671 92 907.636 92H858.228ZM870.516 81.12H904.82C907.977 81.12 910.665 80.4373 912.884 79.072C915.103 77.6213 916.809 75.7867 918.004 73.568C919.284 71.264 919.924 68.832 919.924 66.272C919.924 63.6267 919.284 61.2373 918.004 59.104C916.724 56.8853 914.932 55.0933 912.628 53.728C910.324 52.2773 907.593 51.552 904.436 51.552H870.516V81.12ZM870.516 41.184H902.644C905.631 41.184 908.233 40.544 910.452 39.264C912.756 37.8987 914.505 36.1493 915.7 34.016C916.98 31.7973 917.62 29.4933 917.62 27.104C917.62 24.6293 917.023 22.368 915.828 20.32C914.633 18.1867 912.969 16.48 910.836 15.2C908.703 13.92 906.228 13.28 903.412 13.28H870.516V41.184Z" fill="#6B7280"/>
</svg>
